<svg width="77" height="20" xmlns="http://www.w3.org/2000/svg"><g fill="none"><path d="M27.715 3.305a3.533 3.533 0 0 0-2.49-2.498c-2.197-.59-11.008-.59-11.008-.59s-8.81 0-11.007.59A3.533 3.533 0 0 0 .719 3.305c-.59 2.202-.59 6.8-.59 6.8s0 4.597.59 6.8a3.533 3.533 0 0 0 2.49 2.497c2.197.591 11.008.591 11.008.591s8.811 0 11.007-.59a3.533 3.533 0 0 0 2.491-2.498c.59-2.203.59-6.8.59-6.8s-.003-4.596-.59-6.8z" fill="red"/><path fill="#FFF" d="M11.397 14.344l7.32-4.237-7.32-4.24zM40.699 7.888c-.504 2.565-.886 5.698-1.088 6.989h-.142c-.16-1.333-.545-4.444-1.066-6.97l-1.29-6.28h-3.929v16.95h2.438V4.605l.241 1.304 2.477 12.665h2.438L43.215 5.91l.262-1.311v13.977h2.438V1.627h-3.969L40.7 7.888zm11.805 8.142c-.223.465-.705.789-1.19.789-.564 0-.786-.445-.786-1.535V6.193h-2.781v9.251c0 2.284.744 3.333 2.398 3.333 1.127 0 2.034-.505 2.66-1.717h.06l.242 1.514h2.175V6.191h-2.78v9.84h.002zm8.159-4.949c-.907-.667-1.47-1.111-1.47-2.081 0-.686.322-1.07 1.087-1.07.787 0 1.049.547 1.067 2.405l2.338-.1c.18-3.01-.805-4.263-3.365-4.263-2.377 0-3.546 1.07-3.546 3.272 0 2 .967 2.91 2.537 4.1 1.35 1.051 2.136 1.637 2.136 2.484 0 .646-.404 1.09-1.109 1.09-.825 0-1.31-.788-1.187-2.16l-2.357.04c-.361 2.565.666 4.06 3.405 4.06 2.398 0 3.646-1.111 3.646-3.332.002-2.021-1.007-2.828-3.182-4.445zm4.715-4.888h2.66v12.384h-2.66zm1.35-4.888c-1.028 0-1.51.383-1.51 1.716 0 1.374.482 1.716 1.51 1.716 1.048 0 1.51-.344 1.51-1.716 0-1.272-.462-1.716-1.51-1.716zm10.253 12.807l-2.437-.121c0 2.181-.241 2.888-1.067 2.888s-.967-.788-.967-3.353V11.12c0-2.484.16-3.272.988-3.272.765 0 .967.746.967 3.051l2.417-.16c.16-1.92-.081-3.233-.826-3.98-.545-.546-1.37-.807-2.519-.807-2.7 0-3.808 1.454-3.808 5.535v1.738c0 4.202.946 5.555 3.706 5.555 1.17 0 1.974-.241 2.519-.767.786-.733 1.088-1.984 1.027-3.902z"/></g></svg>
